<svg width="160" height="34" viewBox="0 0 160 34" fill="none" xmlns="http://www.w3.org/2000/svg">
<path d="M50.9302 27.1117H56.0432V6.77905H50.9302V27.1117Z" fill="#172554"/>
<path d="M37.358 27.1117H42.4711V6.77905H37.358V27.1117Z" fill="#172554"/>
<path d="M30.1122 6.50368C28.7553 6.50368 27.1907 6.93277 25.4921 7.29919V0.041626H20.3806V27.1113H25.4324V11.124C27.1358 10.6692 28.7037 10.5808 29.5901 10.5808C30.3668 10.5808 30.5439 11.2413 30.5439 11.9356V27.1113H35.6555V11.447C35.6555 8.1654 33.8796 6.50368 30.0847 6.50368" fill="#172554"/>
<path d="M5.81407 6.44429C5.81407 4.71668 6.93725 3.971 8.63087 3.971C11.8586 3.971 17.8241 4.52062 17.8241 4.52062V0.359904C15.278 0.202411 13.2363 0.00634766 8.35531 0.00634766C3.47427 0.00634766 0 2.16625 0 7.23015C0 15.0823 13.0253 15.4359 13.0253 20.3037C13.0253 22.266 12.342 23.0904 10.5694 23.0904C7.10482 23.0904 1.69846 22.6195 1.69846 22.6195V26.7031C4.24453 26.8992 7.24018 27.0952 10.824 27.0952C15.5472 27.0952 19.0085 24.8967 19.0085 19.8714C19.0085 11.4696 5.81729 10.8413 5.81729 6.44429" fill="#172554"/>
<path d="M44.1741 6.77905V28.5935C44.1741 29.7329 44.1741 30.6827 41.557 31.0202V33.6975C42.4094 33.8743 43.6116 33.8775 43.8614 33.8775C46.9311 33.8775 49.2259 32.8988 49.2259 28.1869V6.77905H44.1741Z" fill="#172554"/>
<path d="M39.901 0.422119C38.7279 0.422119 37.7787 1.37029 37.7787 2.53864C37.7787 3.70699 38.7295 4.65516 39.901 4.65516C41.0725 4.65516 42.0233 3.70699 42.0233 2.53864C42.0233 1.37029 41.0725 0.422119 39.901 0.422119Z" fill="#172554"/>
<path d="M33.9575 0.84729C33.0195 0.84729 32.2589 1.60583 32.2589 2.54115C32.2589 3.47646 33.0195 4.235 33.9575 4.235C34.8953 4.235 35.6559 3.47646 35.6559 2.54115C35.6559 1.60583 34.8953 0.84729 33.9575 0.84729Z" fill="#172554"/>
<path d="M29.7111 1.69446C29.2423 1.69446 28.8619 2.07373 28.8619 2.54139C28.8619 3.00905 29.2423 3.38832 29.7111 3.38832C30.18 3.38832 30.5603 3.00905 30.5603 2.54139C30.5603 2.07373 30.18 1.69446 29.7111 1.69446Z" fill="#172554"/>
<path d="M46.6942 0C45.2874 0 44.1466 1.13781 44.1466 2.54079C44.1466 3.94376 45.2874 5.08158 46.6942 5.08158C48.101 5.08158 49.2418 3.94376 49.2418 2.54079C49.2418 1.13781 48.101 0 46.6942 0Z" fill="#172554"/>
<path d="M53.4872 4.6571C54.6603 4.6571 55.6094 3.70893 55.6094 2.54058C55.6094 1.37225 54.6586 0.424072 53.4872 0.424072C52.3157 0.424072 51.3649 1.37225 51.3649 2.54058C51.3649 3.70893 52.3157 4.6571 53.4872 4.6571Z" fill="#172554"/>
<path d="M59.4313 4.235C60.3693 4.235 61.1299 3.47646 61.1299 2.54115C61.1299 1.60583 60.3693 0.84729 59.4313 0.84729C58.4935 0.84729 57.7329 1.60583 57.7329 2.54115C57.7329 3.47646 58.4935 4.235 59.4313 4.235Z" fill="#172554"/>
<path d="M63.6776 3.38832C64.1466 3.38832 64.5269 3.00905 64.5269 2.54139C64.5269 2.07373 64.1466 1.69446 63.6776 1.69446C63.2087 1.69446 62.8284 2.07373 62.8284 2.54139C62.8284 3.00905 63.2087 3.38832 63.6776 3.38832Z" fill="#172554"/>
<path d="M146.128 22.8826V10.8346H150.327L153.184 19.0616L155.887 10.8346H160V22.8826H156.988V15.5849L154.32 22.8826H151.807L149.14 15.5849V22.8826H146.128Z" fill="#172554"/>
<path d="M135.055 22.8826V10.8346H140.133C142.904 10.8346 144.78 12.4697 144.78 14.9998C144.78 16.4799 144.074 17.6847 142.99 18.3904L145.175 22.8826H141.699L139.926 19.1649H138.222V22.8826H135.055ZM139.874 13.4163H138.222V16.5832H139.874C140.907 16.5832 141.544 15.9808 141.544 14.9998C141.544 14.0187 140.907 13.4163 139.874 13.4163Z" fill="#172554"/>
<path d="M133.837 16.8585C133.837 20.3524 131.376 22.9857 127.744 22.9857C124.113 22.9857 121.651 20.3524 121.651 16.8585C121.651 13.3645 124.113 10.7312 127.744 10.7312C131.376 10.7312 133.837 13.3645 133.837 16.8585ZM124.887 16.8585C124.887 18.8722 125.989 20.3696 127.744 20.3696C129.5 20.3696 130.601 18.8722 130.601 16.8585C130.601 14.8447 129.5 13.3473 127.744 13.3473C125.989 13.3473 124.887 14.8447 124.887 16.8585Z" fill="#172554"/>
<path d="M113.091 22.8826V10.8346H121.301V13.5196H116.258V15.6882H120.372V18.2011H116.258V22.8826H113.091Z" fill="#172554"/>
<path d="M102.307 13.5196V10.8346H111.98V13.5196H108.727V22.8826H105.56V13.5196H102.307Z" fill="#172554"/>
<path d="M94.7493 22.8826H91.4619L95.7648 10.8346H99.5857L103.854 22.8826H100.446L99.689 20.5935H95.4894L94.7493 22.8826ZM97.572 14.1908L96.2983 18.0978H98.8628L97.572 14.1908Z" fill="#172554"/>
<path d="M91.0397 22.8826H83.4667V10.8346H86.6336V20.1976H91.0397V22.8826Z" fill="#172554"/>
<path d="M72.6799 22.8826V10.8346H77.7401C80.4767 10.8346 82.3011 12.4697 82.3011 14.9998C82.3011 17.5298 80.4767 19.1649 77.7401 19.1649H75.8468V22.8826H72.6799ZM77.4475 13.4163H75.8468V16.5832H77.4475C78.4458 16.5832 79.0826 15.9808 79.0826 14.9998C79.0826 14.0187 78.4458 13.4163 77.4475 13.4163Z" fill="#172554"/>
</svg>
