<?xml version="1.0" encoding="utf-8"?>
<!-- Generator: Adobe Illustrator 22.0.1, SVG Export Plug-In . SVG Version: 6.00 Build 0)  -->
<svg version="1.1" id="Ebene_1" xmlns="http://www.w3.org/2000/svg" xmlns:xlink="http://www.w3.org/1999/xlink" x="0px" y="0px"
	 viewBox="0 0 17.2 17.3" style="enable-background:new 0 0 17.2 17.3;" xml:space="preserve">
<style type="text/css">
	.st0{fill:#414BA5;}
</style>
<path class="st0" d="M11.2,4.4v1.3c-0.7-0.9-1.8-1.5-3.1-1.5c-2.5,0-4.4,1.9-4.4,4.5c0,2.5,1.9,4.5,4.3,4.5c1.4,0,2.5-0.6,3.2-1.6
	c0.3,1.8,1.1,2.5,2.7,2.5c2.1,0,3.3-1.9,3.3-5.3c0-5.6-3.1-8.8-8.5-8.8C3.5,0,0,3.4,0,8.6c0,5.3,3.5,8.7,8.9,8.7
	c1.9,0,3.6-0.5,5.1-1.4l0.1-0.1l-0.6-1.2l-0.2,0.1C12,15.6,10.6,16,8.9,16c-4.6,0-7.4-2.8-7.4-7.3s2.8-7.3,7.4-7.3
	c4.5,0,7,2.7,7,7.5c0,2.4-0.7,3.9-1.8,3.9c-0.7,0-1.4-0.3-1.4-2.3V4.4C12.7,4.4,11.2,4.4,11.2,4.4z M11.2,8.8c0,1.7-1.3,3.1-3,3.1
	c-1.9,0-3-1.5-3-3.1c0-1.8,1.2-3.1,3-3.1C9.9,5.7,11.2,7,11.2,8.8z"/>
</svg>
