<?xml version="1.0" encoding="utf-8"?>
<!-- Generator: Adobe Illustrator 22.0.1, SVG Export Plug-In . SVG Version: 6.00 Build 0)  -->
<svg version="1.1" id="Ebene_1" xmlns="http://www.w3.org/2000/svg" xmlns:xlink="http://www.w3.org/1999/xlink" x="0px" y="0px"
	 viewBox="0 0 13.5 17" style="enable-background:new 0 0 13.5 17;" xml:space="preserve">
<style type="text/css">
	.st0{fill:#414BA5;}
</style>
<title>TAM002_Log-in</title>
<g>
	<g>
		<path class="st0" d="M10.8,5.7c0,2.1-1.2,4.3-4,4.3s-4-2.1-4-4.3C2.6,3.6,4.2,1.7,6.4,1.5c0.1,0,0.3,0,0.4,0
			C9.5,1.5,10.8,3.6,10.8,5.7 M9.8,10.6c1.6-1.1,2.6-3,2.5-4.9c0.2-3-2-5.5-5-5.7C7.1,0,6.9,0,6.7,0c-3-0.1-5.4,2.3-5.5,5.2
			c0,0.2,0,0.3,0,0.5c-0.1,2,0.9,3.8,2.5,4.9C1.3,11.8-0.1,14.3,0,17h1.5c0-3.3,2.1-5.6,5.2-5.6S12,13.7,12,17h1.5
			C13.6,14.3,12.1,11.8,9.8,10.6"/>
	</g>
</g>
</svg>
