<?xml version="1.0" encoding="utf-8"?>
<!-- Generator: Adobe Illustrator 22.0.1, SVG Export Plug-In . SVG Version: 6.00 Build 0)  -->
<svg version="1.1" id="Ebene_1" xmlns="http://www.w3.org/2000/svg" xmlns:xlink="http://www.w3.org/1999/xlink" x="0px" y="0px"
	 viewBox="0 0 12.7 16.4" style="enable-background:new 0 0 12.7 16.4;" xml:space="preserve">
<style type="text/css">
	.st0{fill:#414BA5;}
</style>
<title>TAM002_Log-in_locker</title>
<g>
	<g>
		<path class="st0" d="M6.4,8.4c-0.9,0-1.6,0.7-1.6,1.6c0,0.7,0.4,1.2,1,1.5v2.2H7v-2.2c0.8-0.3,1.2-1.3,0.9-2.1
			C7.6,8.8,7,8.4,6.4,8.4"/>
		<path class="st0" d="M11.5,15.2H1.2V6.7h10.2V15.2z M3.9,3.8C4,2.4,5.3,1.4,6.7,1.6c1.1,0.1,2,1,2.2,2.2v1.6h-5V3.8z M10.2,5.4
			V3.8C10.2,1.7,8.5,0,6.4,0S2.6,1.7,2.6,3.8v1.6H0v11h12.7v-11H10.2z"/>
	</g>
</g>
</svg>
